<svg width="105" height="105" viewBox="0 0 105 105" fill="none" xmlns="http://www.w3.org/2000/svg">
<rect width="105" height="105" rx="7" fill="url(#paint0_linear_109_8)"/>
<path d="M78.8536 73.7892L75.8147 69.051L78.7635 65.7584C78.9849 65.5112 79.0572 65.1662 78.9533 64.8522C78.8494 64.5382 78.585 64.3025 78.2588 64.233L62.8042 60.9398L68.0227 59.7985C68.163 59.7679 68.2966 59.7081 68.4113 59.6165C68.6318 59.44 68.7601 59.1742 68.7601 58.8933V49.7472C68.7601 49.3092 68.4514 48.9306 68.0189 48.8385L59.7972 47.0866V40.0126H61.0144C62.7206 40.0126 64.1086 38.638 64.1086 36.9485C64.1086 35.259 62.7206 33.8844 61.0144 33.8844H57.2998V16.9735C58.4496 16.7342 59.3159 15.7225 59.3159 14.5138C59.3157 13.1276 58.177 12 56.7772 12H48.2223C46.8227 12 45.6838 13.1276 45.6838 14.5138C45.6838 15.7225 46.5499 16.7342 47.6999 16.9735V33.8843H43.9853C42.2791 33.8843 40.8911 35.2588 40.8911 36.9483C40.8911 38.6379 42.2791 40.0124 43.9853 40.0124H45.2016V43.9762L27.1361 40.1268C26.7663 40.0477 26.3846 40.1968 26.1684 40.5042C25.9522 40.8116 25.9435 41.2176 26.1464 41.5338L29.1853 46.272L26.2365 49.5647C26.0151 49.812 25.9428 50.1569 26.0467 50.4709C26.1507 50.7849 26.415 51.0207 26.7412 51.0902L42.1958 54.3834L36.9765 55.5228C36.8364 55.5534 36.7032 55.6151 36.5887 55.7067C36.3682 55.8831 36.2399 56.149 36.2399 56.4299V65.5759C36.2399 66.014 36.5486 66.3925 36.9811 66.4847L45.2016 68.2364V82.547C45.2016 82.7294 45.2557 82.9077 45.3573 83.0598L51.7164 92.5832C51.8903 92.8435 52.1844 93 52.4994 93C52.8145 93 53.1085 92.8435 53.2824 92.5832L59.6415 83.0598C59.7431 82.9077 59.7972 82.7294 59.7972 82.547V71.3464L77.8637 75.1962C77.9296 75.2102 77.9957 75.2171 78.0614 75.2171C78.3642 75.2171 78.6538 75.0716 78.8314 74.8188C79.0478 74.5114 79.0566 74.1056 78.8536 73.7892ZM45.201 57.1885L41.5901 56.4191L45.201 55.6318V57.1885ZM47.0783 55.424L51.5607 56.3792V58.544L47.0783 57.5887V55.424ZM53.4381 56.779L57.9191 57.7339V59.8987L53.4381 58.9438V56.779ZM59.7965 58.1339L63.4097 58.9039L59.7965 59.6922V58.1339ZM57.9198 46.6864L53.4381 45.7314V40.0126H57.9198V46.6864ZM55.4224 26.3854H49.5772V24.5265H55.4224V26.3854ZM55.4224 22.6674H49.5772V20.8085H55.4224V22.6674ZM55.4224 18.9495H49.5772V17.0276H55.4224V18.9495ZM49.5772 28.2444H55.4224V30.1033H49.5772V28.2444ZM48.2223 13.8591H56.7772C57.1418 13.8591 57.4384 14.1528 57.4384 14.5138C57.4384 14.8748 57.1418 15.1685 56.7772 15.1685H56.3611H48.6386H48.2225C47.8579 15.1685 47.5613 14.8748 47.5613 14.5138C47.5613 14.1528 47.8578 13.8591 48.2223 13.8591ZM49.5772 31.9624H55.4224V33.8843H49.5772V31.9624ZM42.7684 36.9485C42.7684 36.284 43.3142 35.7435 43.9853 35.7435H61.0144C61.6854 35.7435 62.2312 36.2841 62.2312 36.9485C62.2312 37.6129 61.6853 38.1535 61.0144 38.1535H43.9853C43.3142 38.1535 42.7684 37.6129 42.7684 36.9485ZM47.079 40.0126H51.5607V45.3315L47.079 44.3764V40.0126ZM31.0591 46.9817C31.3369 46.6715 31.3736 46.2166 31.1492 45.8666L28.9331 42.4113L66.8828 50.4978V57.7422L28.7073 49.6075L31.0591 46.9817ZM47.079 68.6364L51.5607 69.5915V88.9795L47.079 82.2677V68.6364ZM57.9198 82.2675L53.4381 88.9794V69.9915L57.9198 70.9466V82.2675ZM38.1172 64.8252V57.5808L76.2926 65.7155L73.9409 68.3413C73.6631 68.6515 73.6264 69.1064 73.8508 69.4564L76.067 72.9117L38.1172 64.8252Z" fill="white"/>
<defs>
<linearGradient id="paint0_linear_109_8" x1="52.5" y1="0" x2="52.5" y2="105" gradientUnits="userSpaceOnUse">
<stop stop-color="#5C6B7E"/>
<stop offset="1" stop-color="#183860"/>
</linearGradient>
</defs>
</svg>
